<?xml version="1.0" encoding="utf-8"?>
<!-- Generator: Adobe Illustrator 17.1.0, SVG Export Plug-In . SVG Version: 6.00 Build 0)  -->
<!DOCTYPE svg PUBLIC "-//W3C//DTD SVG 1.1//EN" "http://www.w3.org/Graphics/SVG/1.1/DTD/svg11.dtd">
<svg version="1.1" id="レイヤー_1" xmlns="http://www.w3.org/2000/svg" xmlns:xlink="http://www.w3.org/1999/xlink" x="0px"
	 y="0px" viewBox="0 0 841.89 500.927" enable-background="new 0 0 841.89 500.927" xml:space="preserve">
<g>
	<g>
		<path fill="#FFFFFF" d="M241.771,450.541c0-8.335-8.485-15.138-19.031-15.138c-10.414,0-18.908,6.803-18.908,15.138v29.637
			c0,8.326,8.49,15.128,18.908,15.128c10.542,0,19.031-6.803,19.031-15.128l6.912-5.626v5.626c0,5.699-2.827,10.865-7.587,14.668
			c-4.646,3.721-11.107,6.082-18.352,6.082c-7.136,0-13.583-2.362-18.338-6.082c-4.651-3.803-7.587-8.969-7.587-14.668v-29.637
			c0-5.709,2.941-10.874,7.587-14.677c4.756-3.711,11.207-6.073,18.338-6.073c7.25,0,13.71,2.362,18.352,6.073
			c4.76,3.803,7.587,8.969,7.587,14.677v5.617L241.771,450.541z M233.847,456.062v-5.522c0-2.448-1.249-4.623-3.283-6.251
			c-1.929-1.541-4.756-2.549-7.824-2.549c-3.055,0-5.772,1.008-7.81,2.549c-1.929,1.628-3.283,3.803-3.283,6.251v29.637
			c0,2.43,1.354,4.614,3.283,6.242c2.038,1.637,4.756,2.54,7.81,2.54c3.069,0,5.895-0.898,7.824-2.54
			c2.029-1.628,3.283-3.812,3.283-6.242v-5.626l6.912,5.626c0,7.97-8.038,14.321-18.014,14.399
			c-9.967-0.082-18.005-6.429-18.005-14.399v-29.637c0-7.888,8.043-14.408,18.005-14.408c9.981,0,18.014,6.52,18.014,14.408
			L233.847,456.062z"/>
		<path fill="#FFFFFF" d="M327.184,450.541v29.637c0,5.699-2.941,10.865-7.696,14.668c-4.646,3.721-11.098,6.082-18.233,6.082
			c-7.25,0-13.706-2.362-18.347-6.082c-4.76-3.803-7.587-8.969-7.587-14.668v-29.637c0-5.709,2.827-10.874,7.587-14.677
			c4.646-3.711,11.102-6.073,18.347-6.073c7.136,0,13.587,2.362,18.233,6.073C324.243,439.666,327.184,444.832,327.184,450.541z
			 M320.162,450.541c0-8.335-8.49-15.138-18.908-15.138c-10.537,0-19.027,6.803-19.027,15.138v29.637
			c0,8.326,8.485,15.128,19.027,15.128c10.418,0,18.908-6.803,18.908-15.128V450.541z M319.15,450.541v29.637
			c0,7.97-8.043,14.321-17.896,14.399c-9.976-0.082-18.01-6.429-18.01-14.399v-29.637c0-7.888,8.038-14.408,18.01-14.408
			C311.107,436.133,319.15,442.648,319.15,450.541z M312.238,450.541c0-2.448-1.245-4.623-3.169-6.251
			c-2.038-1.541-4.756-2.549-7.815-2.549c-3.064,0-5.891,1.008-7.929,2.549c-1.933,1.628-3.169,3.803-3.169,6.251v29.637
			c0,2.43,1.24,4.614,3.169,6.242c2.038,1.637,4.865,2.54,7.929,2.54c3.059,0,5.777-0.898,7.815-2.54
			c1.929-1.628,3.169-3.812,3.169-6.242V450.541z"/>
		<path fill="#FFFFFF" d="M355.302,500.927v-71.037h51.531l-6.912,5.512h-37.721v59.994L355.302,500.927z M370.134,441.741v16.856
			h29.783l-6.912,5.54h-29.787v-27.918h36.699l6.912,5.522H370.134z M370.134,500.927l-6.917-5.531v-30.448h29.787l6.912,5.531
			h-29.783L370.134,500.927L370.134,500.927z"/>
		<path fill="#FFFFFF" d="M434.591,500.927v-71.037h51.531l-6.908,5.512h-37.721v59.994L434.591,500.927z M449.428,441.741v16.856
			h29.787l-6.912,5.54H442.52v-27.918h36.695l6.908,5.522H449.428z M449.428,500.927l-6.908-5.531v-30.448h29.783l6.912,5.531
			h-29.787V500.927z"/>
		<path fill="#FFFFFF" d="M558.746,495.306l7.022,5.617h-51.654v-71.137h51.654l-7.022,5.613h-37.607v59.907H558.746z
			 M529.059,441.741v16.77h29.687l-6.912,5.531h-29.673v-27.909h36.581l7.022,5.608L529.059,441.741L529.059,441.741z
			 M529.059,488.959h36.708l-7.022,5.617h-36.581v-29.719h29.673l6.912,5.522h-29.687v18.58H529.059z"/>
		<path fill="#FFFFFF" d="M638.04,495.306l7.017,5.617h-51.641v-71.137h51.641l-7.017,5.613h-37.602v59.907H638.04z
			 M608.362,441.741v16.77h29.678l-6.912,5.531H601.45v-27.909h36.59l7.017,5.608L608.362,441.741L608.362,441.741z
			 M608.362,488.959h36.695l-7.017,5.617h-36.59v-29.719h29.678l6.912,5.522h-29.678V488.959z"/>
	</g>
	<g>
		<path fill="#FFFFFF" d="M0,174.168v-24.881h11.54V24.881H0V0h34.597l40.36,106.988L115.309,0h34.597v24.881H138.38v124.405h11.526
			v24.881h-46.124v-24.881h11.526V67.184L74.958,174.168L34.598,67.184v82.103h11.526v24.881L0,174.168L0,174.168z"/>
		<path fill="#FFFFFF" d="M182.215,174.168V0.005h92.247v24.881h-69.185v49.771h46.124v24.876h-46.124v49.758h69.181v24.881h-92.243
			V174.168z"/>
		<path fill="#FFFFFF" d="M306.766,174.168V0.005h23.066v149.282h69.181v24.881H306.766z"/>
		<path fill="#FFFFFF" d="M431.322,174.168V0.005h23.057v149.282h69.19v24.881H431.322z"/>
		<path fill="#FFFFFF" d="M574.335,174.168l-18.452-19.902V19.911L574.335,0h55.343l18.457,19.911v134.35l-18.457,19.902h-55.343
			V174.168z M578.935,149.286h46.128V24.881h-46.128V149.286z"/>
		<path fill="#FFFFFF" d="M680.439,0.005h23.057l23.071,124.401l23.057-99.524h23.071l23.057,99.524L818.81,0.005h23.08
			l-34.606,174.163h-23.057L761.16,74.653l-23.062,99.515H715.04L680.439,0.005z"/>
	</g>
	<g>
		<path fill="#FFFFFF" d="M79.581,377.99v-24.881h11.526V228.708H79.581v-24.876h85.331l18.448,19.902v59.706l-6.921,7.464
			l6.921,7.464v59.72l-18.448,19.902L79.581,377.99L79.581,377.99z M114.178,278.466h46.11v-49.758h-46.11V278.466z
			 M114.178,353.109h46.11v-49.762h-46.11V353.109z"/>
		<path fill="#FFFFFF" d="M215.668,377.99V203.832h73.795l18.457,19.902v59.706l-6.921,7.464l6.921,7.464v79.622h-23.071v-74.643
			H238.73v74.643H215.668z M238.725,278.466h46.119v-49.758h-46.119V278.466z"/>
		<path fill="#FFFFFF" d="M358.681,377.99l-18.452-19.902v-134.35l18.452-19.902h55.343l18.448,19.902v134.35l-18.448,19.902
			H358.681z M363.286,353.109h46.124V228.708h-46.124V353.109z"/>
		<path fill="#FFFFFF" d="M464.78,203.832h23.071l23.057,124.396l23.071-99.52h23.057l23.057,99.52l23.071-124.396h23.057
			L591.634,377.99h-23.066l-23.057-99.524l-23.071,99.524h-23.057L464.78,203.832z"/>
		<path fill="#FFFFFF" d="M658.517,377.99V203.832h23.066l57.659,119.426V203.832h23.057V377.99h-23.057l-57.659-119.426V377.99
			H658.517z"/>
	</g>
</g>
</svg>
